<svg xmlns="http://www.w3.org/2000/svg" viewBox="0 30 100 45"><path d="M84.931 33.854l9.26 9.26-9.26 9.261v-2.622c0-.818.01-1.347-1.34-1.347h-5.205c-.863 0-1.392.53-1.392 1.302v17.22H66.41V40.484c-.02-3.316 3.794-2.55 2.643-2.662h14.72c.63 0 1.158-.175 1.158-1.424z" fill-rule="evenodd" fill="#fff"/><path style="line-height:125%;-inkscape-font-specification:'Brandon Text Bold';text-align:center" d="M47.15 54.925h5.435a.965.965 0 0 0 .965-.965c0-5.486 7.62-5.69 7.62-12.395 0-5.13-4.978-8.89-10.363-8.89-6.553 0-10.313 4.47-10.313 4.47-.355.356-.406.966 0 1.321l3.1 3.048c1.27 1.118 2.234-2.083 5.79-2.083 2.185 0 3.81 1.423 3.81 2.998 0 3.25-7.01 5.13-7.01 9.398v2.133c0 .559.457.965.965.965zm-2.084 9.55c0 2.592 2.185 4.776 4.776 4.776 2.641 0 4.876-2.184 4.876-4.775 0-2.642-2.235-4.877-4.876-4.877-2.591 0-4.776 2.235-4.776 4.877z" font-weight="700" font-family="Brandon Text" letter-spacing="0" word-spacing="0" text-anchor="middle" fill="#fff"/><path d="M16.136 33.854l-9.26 9.26 9.26 9.261v-2.622c0-.818-.01-1.347 1.34-1.347h5.205c.863 0 1.393.53 1.393 1.302v17.22h10.583V40.484c.02-3.316-3.794-2.55-2.642-2.662h-14.72c-.63 0-1.159-.175-1.159-1.424z" fill-rule="evenodd" fill="#fff"/></svg>