<svg xmlns="http://www.w3.org/2000/svg" width="100" height="100"><switch transform="translate(.14 1.228)"><g><path d="M43.4 65.6c-.2-.5-.4-1-.6-1.6-1.6-4.4-4.7-12.8-12.4-12.8H30l-3.4 8.9-1.3-5.8h.1c.5 0 .9-.4.9-.9v-1.6c0-.5-.4-.9-.9-.9h-2c-.5 0-.9.4-.9.9v1.6c0 .5.4.9.9.9h.1L22.2 60l-3.4-8.9h-.3c-7.7 0-10.8 8.3-12.4 12.8-.2.6-.4 1.2-.6 1.6-1 2.3-2.1 6.9-2.9 10.5-.5 2.1.6 4.2 2.6 5h.1c2.5 1 5.3-.4 5.9-3.1.8-3.6 1.8-7.5 2.4-9.1.2-.5.5-1.2.7-1.8l.3 13c0 2.2 1.7 4 3.8 4.3a60.263 60.263 0 0 0 12 0c2.2-.2 3.8-2.1 3.8-4.3l.3-13c.2.7.5 1.3.7 1.8.6 1.6 1.6 5.5 2.4 9.1.6 2.6 3.4 4.1 5.9 3.1h.1c2-.8 3.1-2.9 2.6-5-.7-3.5-1.9-8.1-2.8-10.4z"/><circle cx="24.4" cy="38.7" r="10.3"/><path d="M97.4 76.1c-.8-3.6-1.9-8.2-2.9-10.5-.2-.5-.4-1-.6-1.6-1.6-4.4-4.7-12.8-12.4-12.8h-.3l-3.4 8.9-1.3-5.8h.1c.5 0 .9-.4.9-.9v-1.6c0-.5-.4-.9-.9-.9h-2c-.5 0-.9.4-.9.9v1.6c0 .5.4.9.9.9h.1L73.4 60 70 51.2h-.3c-7.7 0-10.8 8.3-12.4 12.8-.2.6-.4 1.2-.6 1.6-1 2.3-2.1 6.9-2.9 10.5-.5 2.1.6 4.2 2.6 5h.1c2.5 1 5.3-.4 5.9-3.1.8-3.6 1.8-7.5 2.4-9.1.2-.5.5-1.2.7-1.8l.3 13c0 2.2 1.7 4 3.8 4.3a60.263 60.263 0 0 0 12 0c2.2-.2 3.8-2.1 3.8-4.3l.3-13c.2.7.5 1.3.7 1.8.6 1.6 1.6 5.5 2.4 9.1.6 2.6 3.4 4.1 5.9 3.1h.1c2-.8 3.1-2.9 2.6-5z"/><circle cx="75.6" cy="38.7" r="10.3"/><path d="M41.1 35.5c.4.7 1.4.3 1.2-.5l-1.7-7.3h4.6c.4 0 .8-.4.7-.9l-3.1-11.1c-.1-.3-.4-.5-.7-.5h-4.9c-.5 0-.8.5-.6.9l2.8 6.8h-4.3c-.5 0-.8.6-.6 1zM54.8 27.7h4.6L57.7 35c-.2.7.8 1.2 1.2.5l6.6-11.4c.3-.5-.1-1-.6-1h-4.3l2.8-6.8c.2-.4-.1-.9-.6-.9h-4.9c-.3 0-.6.2-.7.5L54.1 27c0 .3.3.7.7.7z"/></g></switch></svg>