<svg xmlns="http://www.w3.org/2000/svg" width="100" height="100"><g stroke-width="1.232"><path d="M81.03 80.112c-.568-4.625-1.055-9.25-1.542-13.876 0-.325-.08-.65-.162-.974a5.554 5.554 0 0 0-.568-1.947c-.162-.406-.406-.73-.73-1.055l-1.218-.487h-.08c-1.705-.568-16.474-5.113-16.717-5.194-.082.163-.082.406-.163.568-.406 1.542-.811 3.165-1.298 4.707-.325 1.217-.65 2.353-1.055 3.49-.974 3.245-2.11 6.41-3.246 9.575V75c-.162.325-.325.73-.487 1.055-.081-.568-.325-2.921-.487-5.356-.324-3.49-.649-7.303-.649-7.303l1.217-2.597a1.126 1.126 0 0 0 0-.73l-.649-1.299c-.162-.243-.406-.487-.73-.487h-5.68c-.325 0-.569.163-.731.487l-.65 1.299a1.126 1.126 0 0 0 0 .73l1.218 2.597s-.325 3.814-.65 7.303c-.243 2.435-.405 4.788-.486 5.356-.162-.325-.325-.65-.487-1.055v-.081c-1.136-3.165-2.272-6.33-3.246-9.576-.325-1.136-.73-2.353-.974-3.49-.405-1.54-.811-3.164-1.298-4.706-.081-.162-.081-.405-.162-.568-.163 0-15.013 4.626-16.717 5.194h-.081c-.487.08-.893.243-1.299.405-.324.325-.568.65-.73 1.055-.243.568-.487 1.218-.568 2.03-.081.324-.081.648-.162.973-.487 4.625-.974 9.25-1.542 13.876v.163c-.162 1.136.73 2.11 1.947 2.11h58.996c1.136 0 2.028-.974 1.866-2.11v-.163zM26.173 42.54V26.23a.555.555 0 0 0-.568-.569h-12.74c-.406 0-1.136.082-1.704.569-2.191 1.947-4.382 3.895-6.492 5.842l-1.542 1.38-.162.162c-.162.244-.325.568-.244.893 0 .324.163.649.406.811l1.542 1.38c2.272 2.028 4.382 3.976 6.573 5.924.325.324.893.486 1.38.486h12.983a.555.555 0 0 0 .568-.568zm-5.355-5.842c.487.487.487 1.298 0 1.866-.244.244-.568.406-.893.406-.325 0-.65-.162-.893-.406l-2.353-2.353-2.353 2.353c-.244.244-.568.406-.893.406-.324 0-.65-.162-.893-.406-.486-.487-.486-1.298 0-1.866l2.354-2.354-2.354-2.353c-.486-.487-.486-1.298 0-1.866.487-.487 1.299-.487 1.867 0l2.353 2.353 2.354-2.353c.486-.487 1.298-.487 1.866 0 .487.487.487 1.298 0 1.866l-2.353 2.353zM96.286 33.533l-.162-.162-1.542-1.38c-2.11-1.947-4.3-3.895-6.492-5.843-.568-.487-1.298-.568-1.704-.568h-12.74a.555.555 0 0 0-.568.568V42.46c0 .325.243.568.568.568h12.983c.568 0 1.055-.162 1.461-.487 2.191-1.947 4.3-3.895 6.573-5.923l1.542-1.38c.243-.243.406-.487.406-.811-.081-.325-.163-.65-.325-.893zm-8.44-1.217l-5.761 5.761a1.177 1.177 0 0 1-1.704 0l-3.003-3.002c-.486-.487-.405-1.38.163-1.786.487-.324 1.055-.243 1.46.163l2.191 2.19 4.95-4.95c.406-.405.974-.486 1.461-.162.65.406.73 1.218.244 1.786zM34.775 37.51c0 .243.081.405.081.648.244 2.03 1.218 3.652 2.84 4.464.082.08.082.08.082.162.974 3.733 2.84 6.573 5.68 8.44.325.243.73.486 1.136.73.568.324 1.217.568 1.867.811h.08c.569.244 1.056.406 1.624.487.487.081.974.162 1.542.162h.162c.487 0 .893 0 1.38-.162.568-.081 1.054-.243 1.622-.487h.082c.73-.243 1.298-.487 1.866-.811.406-.244.812-.406 1.136-.73 1.542-1.056 2.84-2.354 3.814-3.977.406-.73.812-1.542 1.217-2.434.163-.325.244-.73.325-.974.081-.406.162-.73.325-.893.162-.243.486-.487.73-.73.162-.162.324-.244.487-.406 1.217-1.136 1.542-2.515 1.704-3.57 0-.244.081-.406.081-.65.081-.405.162-.892.162-1.38v-1.135-.163c0-1.217-.73-2.596-1.947-2.92v-.082c0-.162 0-.325.08-.487 0-.487.082-.893.163-1.298.325-1.218.487-2.516.568-3.733.163-4.139-1.947-7.547-5.68-9.251l-1.217-.487c-2.191-.812-4.545-1.217-6.98-1.298h-1.541c-1.46.08-3.408.162-5.194 1.055-.162.08-.405.162-.568.324-.649.406-1.217.974-1.704 1.704-.08.163-.162.244-.243.325-.162.324-.244.406-.487.649-.406.325-.73.568-1.136.73-.73.325-1.38.893-1.704 1.542-.568.974-.812 2.11-.893 3.57-.081 1.461 0 2.922.081 3.977.081.568.163 1.055.244 1.542v.081c.08.325.162.65.162.974h-.081c-1.38.324-2.191 1.866-2.11 3.165V36.13c0 .487.081.892.162 1.38zm16.392 7.87c-.405.406-.892.65-1.542.65-1.136 0-2.11-.974-2.11-2.11s.893-2.11 2.11-2.11c1.218 0 2.11.893 2.11 2.029 0 .568-.243 1.136-.568 1.542zm-8.683-17.04c.325-3.652 3.896-5.6 7.304-5.6.974 0 1.947.162 2.759.487.892.325 1.623.73 2.272 1.298 1.217 1.055 1.948 2.516 1.948 3.977 0 2.11-1.786 3.651-3.409 5.112l-.649.568c-.649.568-1.298 1.136-1.298 2.11-.081.73-.081 1.46-.081 2.272 0 .162 0 .244-.082.325 0 0-.08.08-.324.08h-2.921c-.244 0-.325-.08-.325-.324 0-1.542 0-3.327.568-4.625.406-.974 1.217-1.542 2.029-2.11.568-.487 1.217-.893 1.704-1.623.892-1.217.73-2.11.406-2.678-.487-.893-1.623-1.542-2.84-1.542-1.542 0-2.76.974-3.247 2.516-.162.487-.243.568-.405.568-.082 0-.244 0-.406-.081-.893-.081-1.704-.244-2.597-.325-.324-.081-.406-.162-.406-.406z"/></g></svg>